<svg xmlns="http://www.w3.org/2000/svg" viewBox="0 0 512 512" fill="none">
  <!-- Background Circle -->
  <circle cx="256" cy="256" r="248" fill="#2563eb" />
  <circle cx="256" cy="256" r="248" stroke="#1d4ed8" stroke-width="8"/>
  
  <!-- Shopping Cart / POS Terminal Body -->
  <rect x="120" y="160" width="272" height="200" rx="24" fill="white" />
  
  <!-- Screen Area -->
  <rect x="144" y="176" width="224" height="100" rx="12" fill="#eff6ff" />
  
  <!-- Screen Content - Barcode lines -->
  <rect x="168" y="196" width="40" height="4" rx="2" fill="#2563eb" />
  <rect x="168" y="208" width="30" height="4" rx="2" fill="#2563eb" />
  <rect x="168" y="220" width="50" height="4" rx="2" fill="#2563eb" />
  <rect x="168" y="232" width="35" height="4" rx="2" fill="#2563eb" />
  <rect x="168" y="244" width="45" height="4" rx="2" fill="#2563eb" />
  <rect x="168" y="256" width="25" height="4" rx="2" fill="#2563eb" />
  
  <!-- Screen Content - Product icon -->
  <rect x="280" y="196" width="60" height="60" rx="8" fill="#dbeafe" />
  <path d="M295 226L310 211L325 226" stroke="#2563eb" stroke-width="3" stroke-linecap="round" stroke-linejoin="round"/>
  <circle cx="296" cy="214" r="3" fill="#2563eb"/>
  <circle cx="324" cy="214" r="3" fill="#2563eb"/>
  
  <!-- Keyboard / Buttons Area -->
  <rect x="144" y="292" width="224" height="48" rx="8" fill="#f8fafc" />
  
  <rect x="156" y="300" width="48" height="12" rx="4" fill="#dbeafe" />
  <rect x="212" y="300" width="48" height="12" rx="4" fill="#dbeafe" />
  <rect x="268" y="300" width="48" height="12" rx="4" fill="#dbeafe" />
  <rect x="324" y="300" width="32" height="12" rx="4" fill="#bfdbfe" />
  
  <rect x="156" y="320" width="48" height="12" rx="4" fill="#dbeafe" />
  <rect x="212" y="320" width="48" height="12" rx="4" fill="#dbeafe" />
  <rect x="268" y="320" width="48" height="12" rx="4" fill="#dbeafe" />
  <rect x="324" y="320" width="32" height="12" rx="4" fill="#60a5fa" />
  
  <!-- Scan Beam -->
  <line x1="144" y1="226" x2="368" y2="226" stroke="#ef4444" stroke-width="2" stroke-dasharray="8 4" opacity="0.8"/>
  <circle cx="368" cy="226" r="4" fill="#ef4444" opacity="0.8"/>
  
  <!-- Lightning Bolt (Speed) -->
  <path d="M120 144L132 168L124 168L138 196" fill="#fbbf24" stroke="#f59e0b" stroke-width="2" stroke-linejoin="round"/>
  
  <!-- Small decorative circles -->
  <circle cx="100" cy="120" r="8" fill="#93c5fd" opacity="0.6"/>
  <circle cx="420" cy="100" r="6" fill="#93c5fd" opacity="0.4"/>
  <circle cx="440" cy="380" r="10" fill="#93c5fd" opacity="0.5"/>
</svg>